<svg xmlns="http://www.w3.org/2000/svg" viewBox="0 0 32 32">
  <defs>
    <linearGradient id="gitea-mirror-gradient" x1="0%" y1="0%" x2="100%" y2="100%">
      <stop offset="0%" style="stop-color:#3b82f6;stop-opacity:1" />
      <stop offset="100%" style="stop-color:#8b5cf6;stop-opacity:1" />
    </linearGradient>
  </defs>
  <rect width="32" height="32" rx="6" fill="url(#gitea-mirror-gradient)"/>
  <g fill="white" transform="translate(16, 16)">
    <path d="M -8 -2 L -3 -2 L -3 -5 L 2 0 L -3 5 L -3 2 L -8 2 C -8 2 -10 2 -10 0 C -10 -2 -8 -2 -8 -2 Z" />
    <path d="M 8 2 L 3 2 L 3 5 L -2 0 L 3 -5 L 3 -2 L 8 -2 C 8 -2 10 -2 10 0 C 10 2 8 2 8 2 Z" opacity="0.9" />
  </g>
</svg>
