<svg xmlns="http://www.w3.org/2000/svg"
     viewBox="0 0 1024 1024"
     fill="none"
     role="img" aria-labelledby="title desc">
<title id="title">Gitea-Mirror</title>
  <desc id="desc">Gitea Mirror auto-syncs GitHub repos to your self-hosted Gitea, with a sleek Web UI and easy Docker deployment.</desc>
  <g fill="currentColor">
    <path d="m330 105 2.152 1.129c16.4 8.624 31.806 18.756 45.848 30.871q1.727 1.453 3.457 2.902C396.135 152.26 396.135 152.26 401 158v2l3.758-1.137c31.807-9.309 64.105-11.791 97.024-13.166l2.743-.119q2.577-.111 5.155-.21c3.572-.156 6.874-.417 10.32-1.368v1l3.49.228c67.457 4.44 67.457 4.44 93.325 13.301 2.5.539 3.813.393 6.185-.529a102 102 0 0 0 5.563-5.5c5.475-5.647 11.245-10.64 17.437-15.5q1.586-1.287 3.168-2.578c17.2-13.928 35.857-25.212 55.77-34.797l2.618-1.264c9.335-4.41 21.474-10.137 31.878-6.513 9.804 5.764 14.107 15.448 16.921 26.054 4.747 19.085 5.818 37.575 5.895 57.16.005.843.01 1.685.017 2.552.048 10.097-.342 20.001-1.568 30.03-1.325 8.388-1.325 8.388.989 16.208l2.312 2.773a491 491 0 0 1 2.496 3.148l1.277 1.617c20.4 26.772 30.368 62.325 31.227 95.61l.078 1.99c.618 16.46-1.276 32.993-5.078 49.01l2.32-.351q5.277-.797 10.555-1.587l3.648-.552q5.235-.782 10.477-1.51l2.481-.345c7.666-.915 15.384-.841 23.093-.84 2.393-.002 4.786-.02 7.18-.04 8.02-.03 15.953.226 23.933 1.05l2.176.21c5.306.614 11.829 1.509 15.622 5.545 1.78 2.509 2.547 4.455 2.445 7.549-.64 3.162-1.474 5.328-3.555 7.808-5.757 2.576-11.605 2.11-17.687 1.188-17.921-2.36-35.865-2.421-53.875-1.312l-2.045.123a387 387 0 0 0-22.631 2.076l-2.077.25c-3.647.45-3.647.45-7.06 1.738-.96 2.517-1.82 4.997-2.625 7.563l-.695 2.154A890 890 0 0 0 784 414l2.938.184 1.94.12 2.122.134 4.375.273 2.297.143 4.656.292 2.297.143 2.223.139 2.152.135 7 .437v1l2.433.424c14.49 2.563 28.797 5.3 42.88 9.639l3.134.957c16.82 5.38 16.82 5.38 20.553 10.98.432 4.468.534 6.908-1.437 10.938-3.66 2.944-7.003 3.266-11.563 3.062-4.391-1-8.635-2.37-12.9-3.8a340 340 0 0 0-38.288-10.325l-2.139-.453c-6.28-1.323-12.227-2.457-18.673-2.422q-3.502-.991-7-2c-2.21-.375-4.38-.63-6.617-.793C784 433 784 433 781.555 432.449c-3.004-.466-4.679-.499-7.555.551-3.494 3.755-6.158 7.854-8.857 12.2-1.584 2.495-3.336 4.837-5.143 7.175l-1.625 2.148L757 456h-2l-.797 1.777C739.798 484.39 694.413 501.635 668 510c-7.93 2.292-15.942 4.215-24 6l-2.675.598q-3.162.704-6.325 1.402l3.969.48c35.82 4.503 83.927 11.489 108.414 41.23 4.383 6.204 6.739 11.726 7.617 19.29l3.883-.656c27.633-4.522 55.352-2.421 79.117 13.656 3.097 2.227 6.06 4.57 9 7l1.723 1.281c17.389 13.484 28.984 37.974 31.93 59.395L881 663l.22 2.029c2.629 26.057-3.559 51.206-16.22 73.971l-1.527 2.79c-18.419 32.142-49.828 56.375-85.407 66.327-24.255 6.529-47.413 5.545-72.066 1.883l-1.8 2.79c-10.807 16.573-23.025 31.638-37.388 45.273l-1.576 1.504c-3.092 2.83-6.204 5.087-9.838 7.183-8.121 4.275-8.121 4.275-13.082 11.485-.516 4.941.04 9.786.556 14.707.351 5.636-2.273 9.12-5.696 13.269C612.955 930.98 565.386 934.235 533 937l-2.426.214c-50.394 4.23-131.464 5.972-173.011-28.714-6.734-6.348-8.971-12.309-9.563-21.5q.44-2.636 1-5.25c.443-2.423.443-2.423 0-4.75-2.852-3.353-6.364-5.563-10-8a382 382 0 0 1-5.437-4.375c-2.481-1.999-4.91-3.856-7.563-5.625v-2l-1.645-.66c-3.152-1.794-5.521-4.212-8.043-6.778l-1.59-1.596c-4.298-4.385-8.14-9.013-11.882-13.884-1.75-2.33-1.75-2.33-4.84-3.082l-.797-2.488c-1.66-4.847-4.517-8.534-7.453-12.7-8.48-12.335-15.103-25.427-21.75-38.812l-1.644-3.239c-1.165-2.372-1.815-4.21-2.356-6.761a119 119 0 0 0-2-7l-2-1c-.71-2.047-.71-2.047-1.375-4.75-1.662-6.486-3.624-12.861-5.625-19.25h-2l.184-2.7c-.002-5.855-1.722-11.465-3.121-17.112-1.763-7.137-3.37-14.007-3.757-21.366-.1-.602-.202-1.203-.306-1.822l-2-1v-12l-2-1 .086-3.066c-.003-6.655-.785-13.258-1.461-19.871l-.383-4.057-.39-3.846-.35-3.511L237 641l-2-1c-.75-2.437-.75-2.437-1-5l2-2a92 92 0 0 0-.023-7.727l-.076-2.365c-.083-2.511-.179-5.022-.276-7.533a4494 4494 0 0 1-.418-12.225c-.971-30.147-.971-30.147 3.606-36.775 2.515-1.581 4.23-2.1 7.187-2.375 6.126 3.277 10.108 9.692 14.008 15.223 5.56 7.752 11.268 13.642 19.992 17.777h2c-18.258-31.782-39.894-58.849-76.14-69.404-6.67-2.015-11.53-3.959-16.235-9.284-2.125-4.332-2.516-7.578-1.625-12.312 1.813-5.083 4.76-8.262 9.375-11 11.397-4.98 24.378-2.026 35.625 2 9.194 3.868 17.176 8.855 25 15l2.902 2.215c5.21 4.04 5.21 4.04 7.098 5.785v2l1.746.703c2.818 1.622 4.299 3.497 6.317 6.047l2.382 3 1.26 1.605a455 455 0 0 0 3.975 4.957 252 252 0 0 1 14.689 20.213c8.41 12.819 17.823 25.152 28.979 35.698C329 596 329 596 329 598l1.813.875C333 600 333 600 336 602v2l2.129.785c3.114 1.318 5.892 2.943 8.808 4.653 8.106 4.426 16.752 6.857 26.063 6.562l-3.262-1.836c-9.527-5.436-18.24-11.223-26.738-18.164l-3.246-2.629Q335.86 590.204 332 587c3.008-3.008 6.783-3.423 10.813-4.375l2.752-.653c8.19-1.851 16.434-3.133 24.748-4.284l3.735-.52c6.036-.794 11.865-1.372 17.952-1.168l-.07-2.957-.055-3.856-.07-3.832C392 562 392 562 394 559c.884-2.008 1.735-4.03 2.563-6.062 2.37-5.806 2.37-5.806 3.437-7.938-8.441-.264-16.699.736-25.062 1.75l-2.278.272c-15.482 1.86-30.93 3.934-46.137 7.447l-3.216.738q-3.051.714-6.089 1.482l-2.738.65-2.409.606c-2.071.055-2.071.055-3.76-1.288L307 555l-1.465-1.848c-1.773-2.486-3.447-5.02-5.098-7.59l-1.816-2.808c-1.494-2.538-2.614-4.992-3.621-7.754a245 245 0 0 1 26.125-7.812c.9-.22 1.8-.438 2.727-.663l2.593-.607 2.298-.538c2.455-.413 4.771-.444 7.257-.38v-3l4-1v2c2.146-.113 4.292-.241 6.438-.375 1.194-.07 2.39-.14 3.62-.21.971-.138 1.942-.274 2.942-.415l1-2 27-1v-2l-4 1v-3l-3.07-.805-4.055-1.07-2.016-.527A167 167 0 0 1 356 509l-1 2-1.232-1.39c-1.976-1.799-3.548-2.48-6.057-3.372l-2.578-.94-2.758-.986c-14.632-5.416-28.35-11.64-41.375-20.312l-1.673-1.1c-10.045-6.652-18.74-14.477-27.327-22.9l-1.88-1.831c-3.061-3.013-5.935-5.97-8.433-9.481-1.496-2.087-2.865-3.866-4.687-5.688a276 276 0 0 1-3-5.246c-.928-1.628-1.96-3.195-3-4.754-8.85-1.422-18.382.696-27.125 2.125l-2.094.334c-20.451 3.28-40.608 7.754-60.133 14.74-5.802 2.052-10.483 3.651-16.648 2.801-5.5-3-5.5-3-7-6-.688-6.991-.688-6.991 1.875-10.75C165.994 417.444 209.712 416.354 241 413l-1.094-2.773-1.406-3.602-1.406-3.586C236 400 236 400 236 398l-1.887-.148c-4.907-.397-9.81-.813-14.707-1.329-27.914-2.908-55.32-2.81-83.201.42-3.375.087-5.507-1.006-8.205-2.943-2.484-3.726-2.515-6.687-2-11 1.365-3.839 2.575-4.775 6.188-6.687 12.387-3.991 26.245-3.678 39.125-3.625h2.479c14.097.02 27.818 1.12 41.794 3.03 2.819.33 5.58.398 8.414.282v1l6 1-.351-1.746c-9.402-47.66-4.11-98.318 23.1-139.585 3.717-5.478 7.56-10.978 12.251-15.669-.164-3.123-.446-6.15-.812-9.25-1.02-9.64-1.526-19.254-1.813-28.937l-.12-3.996c-.752-26.442.768-54.788 12.745-78.817l1-3c2.125-1.5 2.125-1.5 5-3l3.125-1.75C298.368 86.504 317.629 98.388 330 105m3.79 208.016c-17.934 18.561-25.2 44.275-25.165 69.484l.002 1.992c.042 11.245 1.05 21.745 4.373 32.508l.65 2.113C317.637 431.61 323.751 445.517 333 455h2l.762 1.77c9.782 17.62 38.347 27.49 56.515 32.753 7.568 2.036 15.24 3.632 22.91 5.227l2.161.452c13.106 2.715 26.226 5.034 39.652 4.798l1 1c3.226.514 6.496.723 9.75 1l3.066.263c24.29 1.957 48.615 2.192 72.934.862l2.521-.135c19.59.719 19.59.719 36.729-3.99 1.853-.112 3.708-.187 5.563-.25 16.741-1.093 33.554-5.445 49.437-10.75l2.028-.675c27.94-9.473 50.121-26.175 64.527-52.126 12.804-26.205 15.084-58.091 6.133-85.762l-.608-1.998c-1.327-4.086-2.78-6.673-6.08-9.439l2-1c-3.716-7.282-7.83-13.679-13-20l-1.582-2.254L690 313h-2v-2c-13.461-13.785-34.172-20.522-53-21l-2.087-.058c-7.36-.11-14.595.579-21.913 1.308l-4.132.398q-6.934.67-13.868 1.352-9.544.937-19.09 1.86-3.963.387-7.928.782c-17.175 1.681-34.347 2.461-51.596 2.916-2.573.069-5.145.146-7.718.223q-2.463.068-4.926.133l-2.322.072c-1.806.044-3.614.035-5.42.014l-1-1c-2.03-.171-4.066-.278-6.102-.36q-2.022-.09-4.044-.185l-2.201-.1c-17.649-.817-35.145-2.547-52.69-4.59-34.528-3.956-67.436-5.96-94.174 20.25M381 516l1 2h7v-1zm231 28a429 429 0 0 0 2.965 8.719c2.675 7.648 4.483 15.334 6.035 23.281l2.161.212c14.366 1.434 28.493 3.164 42.592 6.303 3.297.712 6.612 1.33 9.928 1.95 4.99 1.15 9.641 3.343 14.304 5.419q2.213.982 4.435 1.945 2.224.964 4.428 1.973c4.768 2.054 7.974 2.612 13.152 1.198 5.27-2.805 11.085-6.7 14-12 1-3.413 1-3.413 0-7-13.92-19.426-52.637-24.038-73.953-27.67-19.934-3.345-19.934-3.345-40.047-4.33m-173 19c-4.265 7.602-4.144 15.045-4.098 23.527l.005 2.997c.005 3.138.018 6.276.03 9.414q.009 3.204.014 6.408.017 7.827.049 15.654l9 1q.037-11.64.055-23.279.008-3.96.02-7.92c.013-3.794.018-7.586.023-11.38l.015-3.582v-3.336l.007-2.934c-.11-2.345-.453-4.327-1.12-6.569zm137 5v2l2-1zm-89 2c-1.795 3.088-2.246 5.304-2.227 8.86v2.912l.032 3.119.008 3.211c.011 3.383.037 6.765.062 10.148q.016 3.442.027 6.883.034 8.434.098 16.867h8q.075-10.144.11-20.288.015-3.451.04-6.902c.025-3.307.036-6.613.045-9.92l.032-3.118v-2.912l.014-2.557c-.262-2.508-.982-4.136-2.241-6.303zm47 0c-2.361 5.58-2.258 10.703-2.195 16.648l.008 3.069c.011 3.22.037 6.439.062 9.658q.016 3.284.027 6.566.034 8.03.098 16.059h8l-1-3v-1l2-1-.562-1.687c-.515-2.721.023-4.617.562-7.313a280 280 0 0 0-1-4l.46-1.684c2.051-8.81 1.071-20.477-.46-29.316l-2-3zm44 0 1 2Zm-2 1v51l7-1c1.347-4.713 1.192-9.318 1.188-14.187l-.003-2.958c-.09-10.71-.461-21.717-4.185-31.855l-1 2h-2zm179 59-.304 3.06C750.223 677.88 743.994 721.59 728 764c15.594 2.39 32.212.31 47-5l3.133-1.125C789.81 753.335 798.99 746.605 808 738l1.828-1.602C822.08 725.234 831.108 707.466 833 691c.13-3.023.096-5.972 0-9h1q.039-2.719.063-5.437l.035-3.06c.188-2.443.188-2.443-1.098-3.503a141 141 0 0 1-.25-4.312c-.911-9.798-5.33-18.36-11.75-25.688l-1.48-1.797c-7.613-8.496-18.568-13.428-29.84-14.404a142 142 0 0 0-7.055-.111l-2.51.01c-9.292.164-16.636 2.654-25.115 6.302m-169 35-1 2 3 1v-3zm-14.053 4.959c-14.919 4.905-30.204 5.727-45.76 6.541-35.965 1.892-74.504 7.084-100.5 34.813-11.785 14.127-18.417 30.509-17.937 49.035 1.724 18.294 9.272 34.235 22.332 47.07 1.76 1.794 1.76 1.794 3.918 1.582l.516-3.48c2.878-18.746 7.646-35.053 20.484-49.52l1.656-1.977c15.02-16.59 37.955-24.872 58.122-33.14 7.366-3.043 14.597-6.315 21.784-9.758.946-.452 1.89-.905 2.865-1.37 4.974-2.41 9.812-4.947 14.573-7.755-6.863 30.993-15.315 64.74-37.75 88.477-1.461 1.452-1.461 1.452-1.25 3.523h-2v2l-3 1v2l-1.676.742c-2.79 1.51-5.046 3.387-7.512 5.383-11.75 9.08-25.655 13.912-39.812 17.875 2.525 3.037 5.095 3.937 8.813 5.125l3.082 1.008c20.814 5.812 44.526.174 62.933-10.153 23.057-14.396 37.03-38.993 43.172-64.98.433-2.668.734-5.308 1-8l-2 1v-2h3c5.771-24.435 7.258-49.966 7-75l-2 1-2-4c-4.28 0-8.045 1.57-12.053 2.959M505.125 748.5l-2.042 1.098c-6.291 3.434-12.25 7.234-18.083 11.402l-3.176 2.27C468.646 772.926 457.81 784.239 449 798l-1.137 1.77c-4.895 7.752-9.528 16.039-10.863 25.23.944 2.757 1.38 3.69 4 5 2.87.751 2.87.751 6 0 4.25-5.37 6.9-11.81 9.922-17.935 8.965-18.02 22-33.272 36.328-47.253 2.983-2.395 2.983-2.395 2.75-4.812l1.723-.234c3.048-1.025 4.502-2.7 6.714-5.016l2.368-2.45L509 750a559 559 0 0 1 3.063-3.062L514 745c-3.317 0-6.01 1.959-8.875 3.5"/>
  <path d="M645.563 341.875c9.336 10.02 13.327 24.29 13.812 37.688-.488 13.347-4.895 27.826-14.875 37.125-6.275 4.933-11.684 6.918-19.66 6.656-7.27-.88-13.286-3.735-18.242-9.149-3.75-5.152-6.426-11.043-8.641-17-.749-2.358-.749-2.358-2.957-3.195l.563-1.875c.674-2.167.674-2.167-.563-4.125.064-16.269 1.62-33.572 13.438-46 11.42-10.313 25.61-10.281 37.125-.125M414 340c11.45 12.255 14.526 26.903 14.277 43.055-.416 10.775-4.06 20.17-10.277 28.945l-1.25 1.805c-3.74 4.946-8.666 7.983-14.75 9.195-8.811.928-14.784-1.302-22.125-6-8.928-8.083-13.158-21.291-13.875-33l-.16-2.45c-.39-11.622 2.318-21.945 7.855-32.124 1.41-2.455 1.41-2.455 2.305-5.426 11.256-10.15 25.266-14.178 38-4" fill="#010101"/>
  <path d="m456 444 1 2 2.125.688c2.858 1.304 3.876 2.24 5.938 4.5 6.105 6.414 15.733 12.641 24.75 12.937L493 464v2c19.647 3.606 42.118 2.536 59-9 2.836-2.166 5.609-4.342 8-7v-2l10-3v2l1.875.313C574 448 574 448 576 451c.508 4.488.309 7.665-2.488 11.336-14.483 15.942-34.787 23.727-56.051 24.984-23.237.837-46.02-5.108-63.399-21.007L452 464l-2.312-2.312c-2.458-3.914-2.27-6.102-1.688-10.688 2.207-2.969 3.486-3.829 7-5zm30.938-402.437C489.819 44.968 491 47.257 491 51.75c-1.194 3.882-3.158 6.401-5.723 9.516-2.322 4.972-2.15 10.092-.438 15.274 1.11 2.522 2.317 4.957 3.599 7.397l2.496 4.965 1.126 2.172c3.429 7.027 2.565 14.75.377 22.051-2.876 7.828-7.691 15.24-15.437 18.875-3.035.624-4.802.457-8 0-3.554-2.874-5.682-5.093-6.437-9.625.554-4.278 2.33-6.205 4.964-9.512 2.908-3.678 3.682-6.61 3.598-11.238-.675-5.712-3.27-10.22-6.154-15.095-4.258-7.299-6.43-15.376-4.436-23.788C463.262 53.95 467.202 47.135 475 42c4.468-1.951 7.54-2.777 11.938-.437" fill="#040404"/>
  <path d="M551 40v2l1.875.875c3.04 1.61 3.987 2.753 5.188 6 .676 5.156-2.766 8.94-5.403 13.102-2.284 4.159-2.582 7.326-2.66 12.023l2 1 .75 2.375c1.495 4.335 3.636 8.069 5.91 12.04 3.586 6.92 3.443 15.358 1.504 22.788-3.11 8.14-7.86 14.927-15.164 19.797-3.756.68-7.467.87-10.852-1.05-1.586-1.325-1.586-1.325-4.148-3.95l-2-2c-.125-2.625-.125-2.625 0-5l2 1q1.724-2.653 3.438-5.312l1.933-2.989c2.914-4.829 3.395-9.184 2.629-14.699-1.356-3.516-3.137-6.73-5-10-4.876-8.86-7.169-16.89-5-27 2.467-8.071 7.403-15.016 14.625-19.5 3.18-1.414 4.964-1.913 8.375-1.5" fill="#040303"/>
  <path d="M532 412.875c2.8 2.974 3.97 5.093 4.031 9.234-.472 7.036-3.153 11.302-8.281 16.079-5.266 4.277-10.93 6.422-17.75 6.09-7.554-1.048-12.844-4.778-18-10.278-3.571-5.022-3.69-10.036-3-16 1.053-3.229 2.046-4.44 4.957-6.148 11.779-5.659 26.772-6.021 38.043 1.023" fill="#030303"/>
  <path d="M531 576h1v46h8l-3-3 2-3v2h2v5h-10z" fill="#1E1E1D"/>
  <path d="M588 663h1v16h-1l-.312-3.312c-.685-3.673-.967-4.44-3.688-6.688v-2l-2-1c3.875-1 3.875-1 5-1z" fill="#242424"/>
  <path d="m143 434 2 1-2.437 2.063c-2.986 3.422-3.3 5.48-3.563 9.937h-1c-.615-7.262-.615-7.262 2.5-11z" fill="#222120"/>
  <path d="m196 496 2 1-7 7-1-2z" fill="#161515"/>
  <path d="M491 609h1v12h-1z" fill="#0C0B0B"/>
  <path d="M442 604h1v12h-1z" fill="#0D0C0C"/>
  <path d="M442 580h1v11h-1z" fill="#0C0C0B"/>
  <path d="M586 675h1v10h-1z" fill="#111"/>
  <path d="M442 570h1v9l-2-2c.375-3.625.375-3.625 1-7" fill="#0E0D0D"/>
  <path d="m442 617 1 4-3-1z" fill="#0D0C0C"/>
  <path d="m467 477 4 2-4 1z" fill="#1B1B1B"/>
  <path d="m194 416 4 1-4 1z" fill="#1B1B1A"/>
  <path d="M189 395h7v1h-7z" fill="#1A1A19"/>
  <path d="M491 601h1v6h-1z" fill="#0C0B0B"/>
  <path d="M491 584h1v6h-1z" fill="#0B0C0B"/>
  <path d="M489 571h2v3h-2z" fill="#0C0C0B"/>
  <path d="m468 144 1 3h-3c1-2 1-2 2-3" fill="#181716"/>
  <path d="M728 814h5v1h-5z" fill="#141413"/>
  <path d="M584 704h1v5h-1z" fill="#131313"/>
  <path d="m538 706 2 1-4 1z" fill="#131312"/>
  <path d="M436 605h1v5h-1z" fill="#0E0E0E"/>
  <path d="M442 592h1v5h-1z" fill="#0D0C0B"/>
  <path d="M537 573h2l-1 4z" fill="#0E0D0C"/>
  <path d="M374 547h5v1h-5z" fill="#121110"/>
  <path d="M576 498h5v1h-5z" fill="#1A1A1A"/>
  <path d="M816 439h5v1h-5z" fill="#1C1C1B"/>
  <path d="M209 438h4l-1 2z" fill="#1A1A19"/>
  <path d="M226 435h5v1h-5z" fill="#181716"/>
  <path d="m697 325 2 1-1 2-2-2z" fill="#141312"/>
  <path d="m347 891 1 4Z" fill="#161515"/>
  <path d="m345 874 2 2-3-1z" fill="#121110"/>
  <path d="m432 802 1 4Z" fill="#111210"/>
  <path d="m756 760 2 2-3-1z" fill="#191919"/>
  <path d="m543 704 4 1Z" fill="#131312"/>
  <path d="m585 696 1 4Z" fill="#131211"/>
  <path d="m721 573 2 1-1 2z" fill="#161513"/>
  <path d="m659 520 4 1Z" fill="#131211"/>
  <path d="m435 496 4 1Z" fill="#1B1A1A"/>
  <path d="m395 488 4 1Z" fill="#181818"/>
  <path d="m498 487 4 1Z" fill="#181616"/>
  <path d="m520 465 3 2h-3z" fill="#1E1E1E"/>
  <path d="m140 432 2 2-2 1z" fill="#252524"/>
  <path d="m166 395 4 1Z" fill="#1D1D1C"/>
  <path d="M713 393v3Z" fill="#121111"/>
  <path d="m856 371 4 1Z" fill="#1F1E1D"/>
  <path d="m224 349 1 4Z" fill="#171615"/>
  <path d="m585 295 4 1Z" fill="#1A1917"/>
  <path d="M595 294h3l-1 2z" fill="#151415"/>
  <path d="M422 294h3l-1 2z" fill="#161513"/>
  <path d="m415 154 4 1Z" fill="#171516"/>
  <path d="m420 152 2 2-3-1z" fill="#171716"/>
  <path d="m482 145 4 1Z" fill="#191917"/>
  <path d="m477 145 4 1Z" fill="#171715"/>
  <path d="m504 144 4 1Z" fill="#181715"/>
  <path d="m532 113 2 1-2 2z" fill="#191817"/>
  <path d="M537 99v3Z" fill="#181716"/>
  <path d="M465 88v3Z" fill="#151514"/>
  <path d="m347 876 2 2h-2z" fill="#151412"/>
  <path d="m464 824 3 1Z" fill="#0E0C0A"/>
  <path d="M474 820h2l-1 2z" fill="#11100F"/>
  <path d="m739 814 3 1Z" fill="#161614"/>
  <path d="m717 812 3 1Z" fill="#110F0F"/>
  <path d="m784 752 3 1Z" fill="#1A1718"/>
  <path d="M502 720h2l-1 2z" fill="#121211"/>
  <path d="m528 712 3 1Z" fill="#161413"/>
  <path d="M536 704h2l-1 2z" fill="#141313"/>
  <path d="m829 697 1 2-2-1z" fill="#151515"/>
  <path d="m533 619 2 2h-2z" fill="#0C0C0A"/>
  <path d="m756 576 2 2h-2z" fill="#171615"/>
  <path d="m707 566 3 1Z" fill="#131212"/>
  <path d="m235 541 2 2h-2z" fill="#1A1918"/>
  <path d="m674 522 2 2h-2z" fill="#141212"/>
  <path d="M187 518h2l-1 2z" fill="#1F1E1E"/>
  <path d="m625 488 2 2h-2z" fill="#191817"/>
  <path d="M481 483h2l-1 2z" fill="#1B1919"/>
  <path d="m465 476 1 2-2-1z" fill="#1E1C1D"/>
  <path d="M802 436h2l-1 2z" fill="#1A1918"/>
  <path d="m793 435 3 1Z" fill="#181817"/>
  <path d="m834 418 2 2h-2z" fill="#1B1B19"/>
  <path d="m811 396 3 1Z" fill="#191816"/>
  <path d="m210 396 3 1Z" fill="#191717"/>
  <path d="m829 395 3 1Z" fill="#1A1919"/>
  <path d="m162 395 3 1Z" fill="#1E1E1C"/>
  <path d="m796 376 3 1Z" fill="#131110"/>
  <path d="m841 371 3 1Z" fill="#1A1A1A"/>
  <path d="m178 371 3 1Z" fill="#1B1A1A"/>
  <path d="m706 342 1 2-2-1z" fill="#151413"/>
  <path d="m673 302 2 2h-2z" fill="#171615"/>
  <path d="m648 293 3 1Z" fill="#141313"/>
  <path d="m416 293 3 1Z" fill="#161614"/>
  <path d="m400 292 3 1Z" fill="#171615"/>
  <path d="m412 152 3 1Z" fill="#151515"/>
  <path d="m456 147 3 1Z" fill="#181815"/>
  <path d="m512 144 3 1Z" fill="#151414"/>
  <path d="m290 89 3 1Z" fill="#1C1C1B"/>
  <path d="m502 939 2 1Z" fill="#151614"/>
  <path d="m436 935 2 1Z" fill="#171514"/>
  <path d="m563 934 2 1Z" fill="#161615"/>
  <path d="m416 932 2 1Z" fill="#181817"/>
  <path d="m580 931 2 1Z" fill="#171514"/>
  <path d="m413 931 2 1Z" fill="#151414"/>
  <path d="m389 925 2 1Z" fill="#161615"/>
  <path d="m608 923 2 1Z" fill="#171715"/>
  <path d="m748 814 2 1Z" fill="#141314"/>
  <path d="m745 814 2 1Z" fill="#151414"/>
  <path d="m769 811 2 1Z" fill="#161514"/>
  <path d="m474 777 2 1Z" fill="#0E0E0D"/>
  <path d="m747 762 2 1Z" fill="#1A1918"/>
  <path d="m760 760 2 1Z" fill="#191816"/>
  <path d="m780 754 2 1Z" fill="#181818"/>
  <path d="m455 752 2 1Z" fill="#121212"/>
  <path d="m528 678 2 1Z" fill="#100F0D"/>
  <path d="m557 675 2 1Z" fill="#100F0E"/>
  <path d="m581 671 2 1Z" fill="#141312"/>
  <path d="m825 651 2 1Z" fill="#151614"/>
  <path d="m486 618 2 1Z" fill="#0D0D0B"/>
  <path d="m350 610 2 1Z" fill="#0F0F0D"/>
  <path d="m807 577 2 1Z" fill="#1D1D1B"/>
  <path d="m760 576 2 1Z" fill="#1C1A18"/>
  <path d="m368 576 2 1Z" fill="#110E0E"/>
  <path d="m363 576 2 1Z" fill="#101011"/>
  <path d="m490 575 2 1Z" fill="#0E0C0C"/>
  <path d="m536 571 2 1Z" fill="#0F0E0C"/>
  <path d="m651 550 2 1Z" fill="#141312"/>
  <path d="m629 547 2 1Z" fill="#121011"/>
  <path d="m396 545 2 1Z" fill="#121111"/>
  <path d="m698 530 2 1Z" fill="#151413"/>
  <path d="m696 529 2 1Z" fill="#141411"/>
  <path d="m311 528 2 1Z" fill="#131313"/>
  <path d="m475 500 2 1Z" fill="#161514"/>
  <path d="m569 499 2 1Z" fill="#191916"/>
  <path d="m452 498 2 1Z" fill="#1A191A"/>
  <path d="m583 497 2 1Z" fill="#1C1C1A"/>
  <path d="m444 497 2 1Z" fill="#191B19"/>
  <path d="m404 490 2 1Z" fill="#191918"/>
  <path d="m629 488 2 1Z" fill="#181617"/>
  <path d="m531 486 2 1Z" fill="#1C1C1A"/>
  <path d="m528 465 2 1Z" fill="#1D1D1C"/>
  <path d="m851 447 2 1Z" fill="#1E1D1C"/>
  <path d="m562 445 2 1Z" fill="#232323"/>
  <path d="m512 445 2 1Z" fill="#1C1B1B"/>
  <path d="m517 444 2 1Z" fill="#1C1A1B"/>
  <path d="m182 444 2 1Z" fill="#1D1C1D"/>
  <path d="m834 443 2 1Z" fill="#1D1C1C"/>
  <path d="m186 443 2 1Z" fill="#1D1E1D"/>
  <path d="m814 438 2 1Z" fill="#1D1B1C"/>
  <path d="m251 438 2 1Z" fill="#151515"/>
  <path d="m788 434 2 1Z" fill="#191718"/>
  <path d="m142 432 2 1Z" fill="#232423"/>
  <path d="m856 424 2 1Z" fill="#1D1D1E"/>
  <path d="m823 417 2 1Z" fill="#191716"/>
  <path d="m608 417 2 1Z" fill="#1A1A1A"/>
  <path d="m199 417 2 1Z" fill="#191819"/>
  <path d="m233 399 2 1Z" fill="#181616"/>
  <path d="m227 398 2 1Z" fill="#171515"/>
  <path d="m218 397 2 1Z" fill="#191716"/>
  <path d="m853 395 2 1Z" fill="#1E1B1B"/>
  <path d="m196 372 2 1Z" fill="#1B1B18"/>
  <path d="m147 372 2 1Z" fill="#21201F"/>
  <path d="m688 315 2 1Z" fill="#151313"/>
  <path d="m542 299 2 1Z" fill="#171816"/>
  <path d="m488 299 2 1Z" fill="#131413"/>
  <path d="m479 299 2 1Z" fill="#151415"/>
  <path d="m656 295 2 1Z" fill="#141414"/>
  <path d="m419 294 2 1Z" fill="#161614"/>
  <path d="m642 292 2 1Z" fill="#161513"/>
  <path d="m406 292 2 1Z" fill="#121212"/>
  <path d="m380 292 2 1Z" fill="#191717"/>
  <path d="m424 152 2 1Z" fill="#181717"/>
  <path d="m416 152 2 1Z" fill="#191716"/>
  <path d="m501 144 2 1Z" fill="#1A1716"/>
  <path d="m496 144 2 1Z" fill="#191818"/>
  <path d="m280 92 2 1Z" fill="#1C1C1B"/>
  <path d="m303 91 2 1Z" fill="#1D1A19"/>
  <path d="m737 90 2 1Z" fill="#1B1A1A"/>
  <path d="m726 90 2 1Z" fill="#1A1A18"/>
  <path d="m297 90 2 1Z" fill="#1D1C1C"/>
  <path d="m538 42 2 1Z" fill="#201F1F"/>
  </g>

  <style>
    :root { color-scheme: light dark; }      /* surfaces get auto-adjusted too */
    svg path        { fill:#000; }
    @media (prefers-color-scheme: dark) {
      svg path      { fill:#fff; }
    }
  </style>
</svg>